# xmcd
# 
# Track frame offsets:
#     150
#     33964
#     76766
#     101098
#     139482
#     156854
#     178669
#     205212
#     219090
#     255092
#     288883
#     318998
# 
# Disc length: 4722
# 
# Revision: 4
# Processed by: cddbd v1.5.2PL0 Copyright (c) Steve Scherf et al.
# Submitted via: fre:ac v1.0.31
# 
DISCID=9b12700c
DTITLE=Neil Young - Neil Young - Bluenote Cafe Disc 1
DYEAR=2015
DGENRE=Rock/Pop
TTITLE0=Welcome To The Big Room
TTITLE1=Don't Take Your Love Away From Me
TTITLE2=This Note's For You
TTITLE3=Ten Men Workin'
TTITLE4=Life In The City
TTITLE5=Hello Lonely Woman
TTITLE6=Soul Of A Woman
TTITLE7=Married Man
TTITLE8=Bad News Comes To Town
TTITLE9=Ain't It The Truth
TTITLE10=One Thing
TTITLE11=Twilight
EXTD=
EXTT0=
EXTT1=
EXTT2=
EXTT3=
EXTT4=
EXTT5=
EXTT6=
EXTT7=
EXTT8=
EXTT9=
EXTT10=
EXTT11=
PLAYORDER=
